<mxfile host="app.diagrams.net" modified="2023-01-12T07:41:48.011Z" agent="5.0 (Macintosh)" etag="kGqjCGFDLXBoZIcfBTYV" version="20.2.6" type="github">
  <diagram id="eeLNqMZ8d0LXY4Ni3JaH" name="Page-1">
    <mxGraphModel dx="2288" dy="1989" grid="1" gridSize="10" guides="1" tooltips="1" connect="1" arrows="1" fold="1" page="1" pageScale="1" pageWidth="850" pageHeight="1100" math="0" shadow="0">
      <root>
        <mxCell id="0" />
        <mxCell id="1" parent="0" />
        <mxCell id="wtdIoPDRo2rwq4HPD1F2-37" style="edgeStyle=orthogonalEdgeStyle;rounded=0;orthogonalLoop=1;jettySize=auto;html=1;exitX=0.5;exitY=1;exitDx=0;exitDy=0;exitPerimeter=0;fontSize=11;endArrow=none;endFill=0;" edge="1" parent="1" source="wtdIoPDRo2rwq4HPD1F2-1" target="wtdIoPDRo2rwq4HPD1F2-2">
          <mxGeometry relative="1" as="geometry" />
        </mxCell>
        <mxCell id="wtdIoPDRo2rwq4HPD1F2-58" style="edgeStyle=orthogonalEdgeStyle;rounded=0;orthogonalLoop=1;jettySize=auto;html=1;exitX=0;exitY=0.5;exitDx=0;exitDy=0;exitPerimeter=0;fontSize=10;fontColor=#1281FF;endArrow=none;endFill=0;strokeColor=#4D9900;" edge="1" parent="1" source="wtdIoPDRo2rwq4HPD1F2-1">
          <mxGeometry relative="1" as="geometry">
            <mxPoint x="200" y="192" as="targetPoint" />
          </mxGeometry>
        </mxCell>
        <mxCell id="wtdIoPDRo2rwq4HPD1F2-68" style="edgeStyle=orthogonalEdgeStyle;rounded=0;orthogonalLoop=1;jettySize=auto;html=1;exitX=1;exitY=0.5;exitDx=0;exitDy=0;exitPerimeter=0;entryX=0;entryY=0.5;entryDx=0;entryDy=0;entryPerimeter=0;fontSize=10;fontColor=#1281FF;endArrow=none;endFill=0;strokeColor=#4D9900;" edge="1" parent="1" source="wtdIoPDRo2rwq4HPD1F2-1" target="wtdIoPDRo2rwq4HPD1F2-7">
          <mxGeometry relative="1" as="geometry" />
        </mxCell>
        <mxCell id="wtdIoPDRo2rwq4HPD1F2-1" value="&lt;font style=&quot;font-size: 10px;&quot;&gt;Head node + login Node&lt;br&gt;+ PBS Server Node&lt;/font&gt;" style="verticalLabelPosition=top;html=1;verticalAlign=bottom;align=center;strokeColor=none;fillColor=#00BEF2;shape=mxgraph.azure.server;labelPosition=center;" vertex="1" parent="1">
          <mxGeometry x="250" y="172" width="135" height="40" as="geometry" />
        </mxCell>
        <mxCell id="wtdIoPDRo2rwq4HPD1F2-35" style="edgeStyle=orthogonalEdgeStyle;rounded=0;orthogonalLoop=1;jettySize=auto;html=1;fontSize=10;endArrow=none;endFill=0;" edge="1" parent="1" source="wtdIoPDRo2rwq4HPD1F2-2" target="wtdIoPDRo2rwq4HPD1F2-21">
          <mxGeometry relative="1" as="geometry" />
        </mxCell>
        <mxCell id="wtdIoPDRo2rwq4HPD1F2-36" style="edgeStyle=orthogonalEdgeStyle;rounded=0;orthogonalLoop=1;jettySize=auto;html=1;fontSize=10;endArrow=none;endFill=0;" edge="1" parent="1" source="wtdIoPDRo2rwq4HPD1F2-2" target="wtdIoPDRo2rwq4HPD1F2-22">
          <mxGeometry relative="1" as="geometry" />
        </mxCell>
        <mxCell id="wtdIoPDRo2rwq4HPD1F2-47" style="edgeStyle=orthogonalEdgeStyle;rounded=0;orthogonalLoop=1;jettySize=auto;html=1;fontSize=10;endArrow=none;endFill=0;" edge="1" parent="1" source="wtdIoPDRo2rwq4HPD1F2-2">
          <mxGeometry relative="1" as="geometry">
            <mxPoint x="458" y="562" as="targetPoint" />
          </mxGeometry>
        </mxCell>
        <mxCell id="wtdIoPDRo2rwq4HPD1F2-2" value="10G switch" style="html=1;verticalLabelPosition=top;verticalAlign=bottom;outlineConnect=0;shadow=0;dashed=0;shape=mxgraph.rack.hpe_aruba.switches.jl479a_aruba_8320_48p_10g_sfp_sfpplus_and_6p_40g_qsfpplus_5_fan_2_ps_switch_bundle;fontSize=12;labelPosition=center;align=center;" vertex="1" parent="1">
          <mxGeometry x="385" y="272" width="145" height="35" as="geometry" />
        </mxCell>
        <mxCell id="wtdIoPDRo2rwq4HPD1F2-57" style="edgeStyle=orthogonalEdgeStyle;rounded=0;orthogonalLoop=1;jettySize=auto;html=1;fontSize=10;fontColor=#1281FF;endArrow=none;endFill=0;strokeColor=#4D9900;" edge="1" parent="1" source="wtdIoPDRo2rwq4HPD1F2-3">
          <mxGeometry relative="1" as="geometry">
            <mxPoint x="200" y="289.5" as="targetPoint" />
          </mxGeometry>
        </mxCell>
        <mxCell id="wtdIoPDRo2rwq4HPD1F2-3" value="&lt;div style=&quot;font-size: 12px;&quot;&gt;1G switch&lt;/div&gt;&lt;div style=&quot;font-size: 12px;&quot;&gt;Admin network&lt;/div&gt;" style="html=1;verticalLabelPosition=bottom;verticalAlign=top;outlineConnect=0;shadow=0;dashed=0;shape=mxgraph.rack.hpe_aruba.switches.jl581a_aruba_8320_48p_1g_10gbase_t_and_6p_40g_qsfpplus_5_fans_2_ps_switch_bundle;fontSize=12;fontColor=#4D9900;" vertex="1" parent="1">
          <mxGeometry x="20" y="277" width="130" height="25" as="geometry" />
        </mxCell>
        <mxCell id="wtdIoPDRo2rwq4HPD1F2-55" value="" style="edgeStyle=orthogonalEdgeStyle;rounded=0;orthogonalLoop=1;jettySize=auto;html=1;fontSize=10;endArrow=none;endFill=0;" edge="1" parent="1" source="wtdIoPDRo2rwq4HPD1F2-11" target="wtdIoPDRo2rwq4HPD1F2-54">
          <mxGeometry relative="1" as="geometry" />
        </mxCell>
        <mxCell id="wtdIoPDRo2rwq4HPD1F2-59" style="edgeStyle=orthogonalEdgeStyle;rounded=0;orthogonalLoop=1;jettySize=auto;html=1;fontSize=10;fontColor=#1281FF;endArrow=none;endFill=0;strokeColor=#4D9900;" edge="1" parent="1" source="wtdIoPDRo2rwq4HPD1F2-11">
          <mxGeometry relative="1" as="geometry">
            <mxPoint x="200" y="347" as="targetPoint" />
          </mxGeometry>
        </mxCell>
        <mxCell id="wtdIoPDRo2rwq4HPD1F2-11" value="&lt;font style=&quot;font-size: 10px;&quot;&gt;4x RTX8000 / &lt;/font&gt;&lt;font style=&quot;font-size: 10px;&quot;&gt;Compute GPU&lt;br&gt;&lt;/font&gt;" style="verticalLabelPosition=bottom;html=1;verticalAlign=top;align=center;strokeColor=none;fillColor=#00BEF2;shape=mxgraph.azure.server;" vertex="1" parent="1">
          <mxGeometry x="290" y="332" width="140" height="30" as="geometry" />
        </mxCell>
        <mxCell id="wtdIoPDRo2rwq4HPD1F2-17" style="rounded=0;orthogonalLoop=1;jettySize=auto;html=1;entryX=0.5;entryY=0;entryDx=0;entryDy=0;entryPerimeter=0;fontSize=10;verticalAlign=bottom;horizontal=0;edgeStyle=orthogonalEdgeStyle;endArrow=none;endFill=0;fontColor=#1281FF;strokeColor=#FF1F5A;" edge="1" parent="1" source="wtdIoPDRo2rwq4HPD1F2-13" target="wtdIoPDRo2rwq4HPD1F2-1">
          <mxGeometry relative="1" as="geometry" />
        </mxCell>
        <mxCell id="wtdIoPDRo2rwq4HPD1F2-18" style="rounded=0;orthogonalLoop=1;jettySize=auto;html=1;fontSize=10;verticalAlign=bottom;horizontal=0;edgeStyle=orthogonalEdgeStyle;endArrow=none;endFill=0;fontColor=#1281FF;strokeColor=#FF1F5A;" edge="1" parent="1" source="wtdIoPDRo2rwq4HPD1F2-13">
          <mxGeometry relative="1" as="geometry">
            <mxPoint x="390" y="102" as="sourcePoint" />
            <mxPoint x="500" y="172" as="targetPoint" />
            <Array as="points">
              <mxPoint x="379" y="132" />
              <mxPoint x="500" y="132" />
              <mxPoint x="500" y="171" />
            </Array>
          </mxGeometry>
        </mxCell>
        <mxCell id="wtdIoPDRo2rwq4HPD1F2-20" style="edgeStyle=orthogonalEdgeStyle;rounded=0;orthogonalLoop=1;jettySize=auto;html=1;fontSize=10;endArrow=none;endFill=0;entryX=0.05;entryY=0.5;entryDx=0;entryDy=0;entryPerimeter=0;fontColor=#1281FF;strokeColor=#FF1F5A;" edge="1" parent="1" source="wtdIoPDRo2rwq4HPD1F2-13">
          <mxGeometry relative="1" as="geometry">
            <mxPoint x="527.5" y="84.5" as="targetPoint" />
          </mxGeometry>
        </mxCell>
        <mxCell id="wtdIoPDRo2rwq4HPD1F2-13" value="Campus Network" style="html=1;verticalLabelPosition=top;verticalAlign=bottom;outlineConnect=0;shadow=0;dashed=0;shape=mxgraph.rack.hpe_aruba.switches.jl581a_aruba_8320_48p_1g_10gbase_t_and_6p_40g_qsfpplus_5_fans_2_ps_switch_bundle;fontSize=12;labelPosition=center;align=center;" vertex="1" parent="1">
          <mxGeometry x="308" y="72" width="142" height="25" as="geometry" />
        </mxCell>
        <mxCell id="wtdIoPDRo2rwq4HPD1F2-21" value="&lt;div style=&quot;font-size: 11px;&quot;&gt;Backup Server&lt;/div&gt;" style="shadow=0;dashed=0;html=1;strokeColor=none;fillColor=#EF8F21;labelPosition=center;verticalLabelPosition=bottom;verticalAlign=top;align=center;outlineConnect=0;shape=mxgraph.veeam.nas_backup;fontSize=11;" vertex="1" parent="1">
          <mxGeometry x="670" y="372" width="60" height="50" as="geometry" />
        </mxCell>
        <mxCell id="wtdIoPDRo2rwq4HPD1F2-22" value="NAS Applicance&lt;br style=&quot;font-size: 13px;&quot;&gt;&lt;div style=&quot;font-size: 13px;&quot;&gt;/data - 60 TB&lt;br style=&quot;font-size: 13px;&quot;&gt;&lt;/div&gt;&lt;div style=&quot;font-size: 13px;&quot;&gt;/home - 48 TB&lt;br style=&quot;font-size: 13px;&quot;&gt;&lt;/div&gt;&lt;div style=&quot;font-size: 13px;&quot;&gt;/apps - 500 GB&lt;br style=&quot;font-size: 13px;&quot;&gt;&lt;/div&gt;" style="fontColor=#0066CC;verticalAlign=top;verticalLabelPosition=bottom;labelPosition=center;align=center;html=1;outlineConnect=0;fillColor=#CCCCCC;strokeColor=#6881B3;gradientColor=none;gradientDirection=north;strokeWidth=2;shape=mxgraph.networks.nas_filer;fontSize=13;" vertex="1" parent="1">
          <mxGeometry x="750" y="319.5" width="100" height="35" as="geometry" />
        </mxCell>
        <mxCell id="wtdIoPDRo2rwq4HPD1F2-67" style="edgeStyle=orthogonalEdgeStyle;rounded=0;orthogonalLoop=1;jettySize=auto;html=1;exitX=1;exitY=0.5;exitDx=0;exitDy=0;exitPerimeter=0;fontSize=10;fontColor=#1281FF;endArrow=none;endFill=0;strokeColor=#4D9900;" edge="1" parent="1" source="wtdIoPDRo2rwq4HPD1F2-29">
          <mxGeometry relative="1" as="geometry">
            <mxPoint x="660" y="416.75" as="targetPoint" />
          </mxGeometry>
        </mxCell>
        <mxCell id="wtdIoPDRo2rwq4HPD1F2-29" value="8x RTX A5000 / Compute GPU" style="verticalLabelPosition=bottom;html=1;verticalAlign=top;align=center;strokeColor=none;fillColor=#00BEF2;shape=mxgraph.azure.server;fontSize=10;" vertex="1" parent="1">
          <mxGeometry x="484" y="402" width="150" height="30" as="geometry" />
        </mxCell>
        <mxCell id="wtdIoPDRo2rwq4HPD1F2-66" style="edgeStyle=orthogonalEdgeStyle;rounded=0;orthogonalLoop=1;jettySize=auto;html=1;exitX=1;exitY=0.5;exitDx=0;exitDy=0;exitPerimeter=0;fontSize=10;fontColor=#1281FF;endArrow=none;endFill=0;strokeColor=#4D9900;" edge="1" parent="1" source="wtdIoPDRo2rwq4HPD1F2-30">
          <mxGeometry relative="1" as="geometry">
            <mxPoint x="660" y="486.75" as="targetPoint" />
          </mxGeometry>
        </mxCell>
        <mxCell id="wtdIoPDRo2rwq4HPD1F2-30" value="8x RTX A5000 / Compute GPU" style="verticalLabelPosition=bottom;html=1;verticalAlign=top;align=center;strokeColor=none;fillColor=#00BEF2;shape=mxgraph.azure.server;fontSize=10;" vertex="1" parent="1">
          <mxGeometry x="484" y="472" width="150" height="30" as="geometry" />
        </mxCell>
        <mxCell id="wtdIoPDRo2rwq4HPD1F2-65" style="edgeStyle=orthogonalEdgeStyle;rounded=0;orthogonalLoop=1;jettySize=auto;html=1;exitX=1;exitY=0.5;exitDx=0;exitDy=0;exitPerimeter=0;fontSize=10;fontColor=#1281FF;endArrow=none;endFill=0;strokeColor=#4D9900;" edge="1" parent="1" source="wtdIoPDRo2rwq4HPD1F2-31">
          <mxGeometry relative="1" as="geometry">
            <mxPoint x="660" y="562" as="targetPoint" />
          </mxGeometry>
        </mxCell>
        <mxCell id="wtdIoPDRo2rwq4HPD1F2-31" value="8x RTX A5000 / Compute GPU" style="verticalLabelPosition=bottom;html=1;verticalAlign=top;align=center;strokeColor=none;fillColor=#00BEF2;shape=mxgraph.azure.server;fontSize=9;" vertex="1" parent="1">
          <mxGeometry x="484" y="546" width="150" height="30" as="geometry" />
        </mxCell>
        <mxCell id="wtdIoPDRo2rwq4HPD1F2-41" style="edgeStyle=orthogonalEdgeStyle;rounded=0;orthogonalLoop=1;jettySize=auto;html=1;fontSize=11;endArrow=none;endFill=0;" edge="1" parent="1" source="wtdIoPDRo2rwq4HPD1F2-7" target="wtdIoPDRo2rwq4HPD1F2-2">
          <mxGeometry relative="1" as="geometry" />
        </mxCell>
        <mxCell id="wtdIoPDRo2rwq4HPD1F2-7" value="&lt;div style=&quot;font-size: 10px;&quot;&gt;Development GPU Node&lt;/div&gt;4 x &lt;span style=&quot;caret-color: rgb(33, 33, 33); color: rgb(33, 33, 33); font-family: Arial, sans-serif; font-size: 10px; font-style: normal; font-variant-caps: normal; font-weight: 400; letter-spacing: normal; text-align: start; text-indent: 0px; text-transform: none; word-spacing: 0px; -moz-text-size-adjust: auto; -webkit-text-stroke-width: 0px; text-decoration: none; display: inline !important; float: none;&quot;&gt;RTX 8000&lt;span class=&quot;Apple-converted-space&quot; style=&quot;font-size: 10px;&quot;&gt; &lt;br style=&quot;font-size: 10px;&quot;&gt;&lt;/span&gt;&lt;/span&gt;" style="verticalLabelPosition=top;html=1;verticalAlign=bottom;align=center;strokeColor=none;fillColor=#00BEF2;shape=mxgraph.azure.server;labelPosition=center;fontSize=10;" vertex="1" parent="1">
          <mxGeometry x="425" y="172" width="150" height="40" as="geometry" />
        </mxCell>
        <mxCell id="wtdIoPDRo2rwq4HPD1F2-48" value="" style="edgeStyle=orthogonalEdgeStyle;rounded=0;orthogonalLoop=1;jettySize=auto;html=1;fontSize=10;endArrow=none;endFill=0;" edge="1" parent="1" source="wtdIoPDRo2rwq4HPD1F2-42" target="wtdIoPDRo2rwq4HPD1F2-29">
          <mxGeometry relative="1" as="geometry" />
        </mxCell>
        <mxCell id="wtdIoPDRo2rwq4HPD1F2-60" style="edgeStyle=orthogonalEdgeStyle;rounded=0;orthogonalLoop=1;jettySize=auto;html=1;fontSize=10;fontColor=#1281FF;endArrow=none;endFill=0;strokeColor=#4D9900;" edge="1" parent="1" source="wtdIoPDRo2rwq4HPD1F2-42">
          <mxGeometry relative="1" as="geometry">
            <mxPoint x="200" y="417" as="targetPoint" />
          </mxGeometry>
        </mxCell>
        <mxCell id="wtdIoPDRo2rwq4HPD1F2-42" value="8x 2080Ti / Compute GPU" style="verticalLabelPosition=bottom;html=1;verticalAlign=top;align=center;strokeColor=none;fillColor=#00BEF2;shape=mxgraph.azure.server;fontSize=10;" vertex="1" parent="1">
          <mxGeometry x="290" y="402" width="150" height="30" as="geometry" />
        </mxCell>
        <mxCell id="wtdIoPDRo2rwq4HPD1F2-49" value="" style="edgeStyle=orthogonalEdgeStyle;rounded=0;orthogonalLoop=1;jettySize=auto;html=1;fontSize=10;endArrow=none;endFill=0;" edge="1" parent="1" source="wtdIoPDRo2rwq4HPD1F2-43" target="wtdIoPDRo2rwq4HPD1F2-30">
          <mxGeometry relative="1" as="geometry" />
        </mxCell>
        <mxCell id="wtdIoPDRo2rwq4HPD1F2-61" style="edgeStyle=orthogonalEdgeStyle;rounded=0;orthogonalLoop=1;jettySize=auto;html=1;fontSize=10;fontColor=#1281FF;endArrow=none;endFill=0;strokeColor=#4D9900;" edge="1" parent="1" source="wtdIoPDRo2rwq4HPD1F2-43">
          <mxGeometry relative="1" as="geometry">
            <mxPoint x="200" y="487" as="targetPoint" />
          </mxGeometry>
        </mxCell>
        <mxCell id="wtdIoPDRo2rwq4HPD1F2-43" value="8x 2080Ti / Compute GPU" style="verticalLabelPosition=bottom;html=1;verticalAlign=top;align=center;strokeColor=none;fillColor=#00BEF2;shape=mxgraph.azure.server;fontSize=10;" vertex="1" parent="1">
          <mxGeometry x="290" y="472" width="150" height="30" as="geometry" />
        </mxCell>
        <mxCell id="wtdIoPDRo2rwq4HPD1F2-50" value="" style="edgeStyle=orthogonalEdgeStyle;rounded=0;orthogonalLoop=1;jettySize=auto;html=1;fontSize=10;endArrow=none;endFill=0;" edge="1" parent="1" source="wtdIoPDRo2rwq4HPD1F2-44" target="wtdIoPDRo2rwq4HPD1F2-31">
          <mxGeometry relative="1" as="geometry" />
        </mxCell>
        <mxCell id="wtdIoPDRo2rwq4HPD1F2-62" style="edgeStyle=orthogonalEdgeStyle;rounded=0;orthogonalLoop=1;jettySize=auto;html=1;fontSize=10;fontColor=#1281FF;endArrow=none;endFill=0;strokeColor=#4D9900;" edge="1" parent="1" source="wtdIoPDRo2rwq4HPD1F2-44">
          <mxGeometry relative="1" as="geometry">
            <mxPoint x="200" y="561" as="targetPoint" />
          </mxGeometry>
        </mxCell>
        <mxCell id="wtdIoPDRo2rwq4HPD1F2-44" value="8x RTX8000 / Compute GPU" style="verticalLabelPosition=bottom;html=1;verticalAlign=top;align=center;strokeColor=none;fillColor=#00BEF2;shape=mxgraph.azure.server;fontSize=9;" vertex="1" parent="1">
          <mxGeometry x="290" y="546" width="150" height="30" as="geometry" />
        </mxCell>
        <mxCell id="wtdIoPDRo2rwq4HPD1F2-54" value="8x RTX A5000 / Compute GPU" style="verticalLabelPosition=bottom;html=1;verticalAlign=top;align=center;strokeColor=none;fillColor=#00BEF2;shape=mxgraph.azure.server;fontSize=10;" vertex="1" parent="1">
          <mxGeometry x="484" y="332.5" width="150" height="30" as="geometry" />
        </mxCell>
        <mxCell id="wtdIoPDRo2rwq4HPD1F2-56" value="" style="endArrow=none;html=1;rounded=0;fontSize=10;fontColor=#1281FF;strokeColor=#4D9900;" edge="1" parent="1">
          <mxGeometry width="50" height="50" relative="1" as="geometry">
            <mxPoint x="200" y="632" as="sourcePoint" />
            <mxPoint x="200" y="162" as="targetPoint" />
          </mxGeometry>
        </mxCell>
        <mxCell id="wtdIoPDRo2rwq4HPD1F2-63" value="" style="endArrow=none;html=1;rounded=0;fontSize=10;fontColor=#1281FF;strokeColor=#4D9900;entryX=1;entryY=0.5;entryDx=0;entryDy=0;entryPerimeter=0;edgeStyle=orthogonalEdgeStyle;" edge="1" parent="1" target="wtdIoPDRo2rwq4HPD1F2-54">
          <mxGeometry width="50" height="50" relative="1" as="geometry">
            <mxPoint x="200" y="632" as="sourcePoint" />
            <mxPoint x="660" y="322" as="targetPoint" />
            <Array as="points">
              <mxPoint x="200" y="632" />
              <mxPoint x="660" y="632" />
              <mxPoint x="660" y="348" />
            </Array>
          </mxGeometry>
        </mxCell>
        <mxCell id="wtdIoPDRo2rwq4HPD1F2-69" value="VS Code / Jypyter Nodebook" style="sketch=0;pointerEvents=1;shadow=0;dashed=0;html=1;strokeColor=none;labelPosition=center;verticalLabelPosition=top;verticalAlign=bottom;align=center;fillColor=#515151;shape=mxgraph.mscae.system_center.admin_console;fontSize=12;fontColor=#000000;" vertex="1" parent="1">
          <mxGeometry x="526" y="59.5" width="66" height="50" as="geometry" />
        </mxCell>
        <mxCell id="wtdIoPDRo2rwq4HPD1F2-72" value="" style="endArrow=none;dashed=1;html=1;dashPattern=1 3;strokeWidth=2;rounded=0;fontSize=13;fontColor=#000000;" edge="1" parent="1">
          <mxGeometry width="50" height="50" relative="1" as="geometry">
            <mxPoint x="900" y="372.5" as="sourcePoint" />
            <mxPoint x="900" y="322.5" as="targetPoint" />
          </mxGeometry>
        </mxCell>
        <mxCell id="wtdIoPDRo2rwq4HPD1F2-73" value="" style="endArrow=none;dashed=1;html=1;dashPattern=1 3;strokeWidth=2;rounded=0;fontSize=13;fontColor=#000000;" edge="1" parent="1">
          <mxGeometry width="50" height="50" relative="1" as="geometry">
            <mxPoint x="-10" y="402" as="sourcePoint" />
            <mxPoint x="-10" y="352" as="targetPoint" />
          </mxGeometry>
        </mxCell>
        <mxCell id="wtdIoPDRo2rwq4HPD1F2-74" value="" style="endArrow=none;dashed=1;html=1;dashPattern=1 3;strokeWidth=2;rounded=0;fontSize=13;fontColor=#000000;" edge="1" parent="1">
          <mxGeometry width="50" height="50" relative="1" as="geometry">
            <mxPoint x="410" y="19.999999999999773" as="sourcePoint" />
            <mxPoint x="410" y="-30" as="targetPoint" />
          </mxGeometry>
        </mxCell>
        <mxCell id="wtdIoPDRo2rwq4HPD1F2-75" value="" style="endArrow=none;dashed=1;html=1;dashPattern=1 3;strokeWidth=2;rounded=0;fontSize=13;fontColor=#000000;" edge="1" parent="1">
          <mxGeometry width="50" height="50" relative="1" as="geometry">
            <mxPoint x="400" y="700" as="sourcePoint" />
            <mxPoint x="450" y="697.5" as="targetPoint" />
            <Array as="points">
              <mxPoint x="420" y="690" />
            </Array>
          </mxGeometry>
        </mxCell>
      </root>
    </mxGraphModel>
  </diagram>
</mxfile>
